<?xml version="1.0" encoding="UTF-8" standalone="no"?>
<!-- Created with Inkscape (http://www.inkscape.org/) -->

<svg
   width="86.473"
   height="52"
   viewBox="0 0 22.879314 13.758333"
   version="1.1"
   id="svg318"
   inkscape:version="1.2.2 (732a01da63, 2022-12-09)"
   sodipodi:docname="icoLogoTP.svg"
   xmlns:inkscape="http://www.inkscape.org/namespaces/inkscape"
   xmlns:sodipodi="http://sodipodi.sourceforge.net/DTD/sodipodi-0.dtd"
   xmlns="http://www.w3.org/2000/svg"
   xmlns:svg="http://www.w3.org/2000/svg">
  <sodipodi:namedview
     id="namedview320"
     pagecolor="#ffffff"
     bordercolor="#000000"
     borderopacity="0.25"
     inkscape:showpageshadow="2"
     inkscape:pageopacity="0.0"
     inkscape:pagecheckerboard="0"
     inkscape:deskcolor="#d1d1d1"
     inkscape:document-units="mm"
     showgrid="false"
     inkscape:zoom="2.025849"
     inkscape:cx="161.90743"
     inkscape:cy="94.034648"
     inkscape:window-width="1920"
     inkscape:window-height="991"
     inkscape:window-x="-9"
     inkscape:window-y="-9"
     inkscape:window-maximized="1"
     inkscape:current-layer="layer1" />
  <defs
     id="defs315" />
  <g
     inkscape:label="Capa 1"
     inkscape:groupmode="layer"
     id="layer1">
    <g
       id="g1290"
       transform="matrix(0.08922311,0,0,0.08922311,-5.3923763e-5,-29.422452)"
       inkscape:export-filename="favicon.png"
       inkscape:export-xdpi="96"
       inkscape:export-ydpi="96">
      <path
         id="path1262"
         style="fill:#f466ba;fill-opacity:1;fill-rule:nonzero;stroke:none;stroke-width:0.133333"
         d="m 130.78226,418.59734 c -3.7208,-2.85333 -7.83226,-5.19733 -12.18333,-6.948 -2.902,-1.16667 -5.9244,-2.07867 -8.662,-3.592 -7.24373,-4.00933 -11.710399,-11.94667 -13.158266,-20.1 -1.448,-8.15067 -0.224,-16.54533 1.661467,-24.60667 0.01773,5.24134 2.390129,10.43067 6.342669,13.87334 3.59066,3.12533 8.20933,4.73466 12.5688,6.64933 6.77026,2.972 13.15053,6.82933 18.9284,11.44133 2.492,1.98934 4.89333,4.14134 6.77066,6.71867 3.91334,5.368 5.28667,12.50933 3.644,18.94667 -1.592,6.23986 -6.18,12.19613 -12.15466,14.7904 3.99333,-6.44107 2.30533,-12.52374 -3.75774,-17.17307" />
      <path
         id="path1264"
         style="fill:#501e5a;fill-opacity:1;fill-rule:nonzero;stroke:none;stroke-width:0.133333"
         d="m 145.912,400.54134 c 0.956,-6.26667 -1.45867,-12.68933 -5.296,-17.73467 -3.836,-5.04533 -8.9952,-8.908 -14.21547,-12.50533 -3.26827,-2.24933 -6.61773,-4.448 -9.36827,-7.30533 -2.7516,-2.86 -4.89426,-6.49867 -5.1588,-10.45733 -0.2656,-3.96 1.6744,-8.19734 5.26294,-9.89067 -5.3552,1.268 -10.17654,4.87733 -12.6192,9.80933 -2.44267,4.93067 -2.34374,11.112 0.526,15.808 3.03133,4.96 8.53746,7.76533 13.83186,10.16267 6.1744,2.796 12.52494,5.42 17.87427,9.58266 3.932,3.06 6.124,6.63334 8.56,10.98134 0,0 0.43333,0.56933 0.60267,1.54933" />
      <path
         id="path1266"
         style="fill:#dfebf8;fill-opacity:1;fill-rule:nonzero;stroke:none;stroke-width:0.133333"
         d="m 128.538,367.09067 c -2.57867,-1.85733 -5.17867,-3.736 -7.30934,-6.09333 -2.1308,-2.35867 -3.78546,-5.26666 -4.10466,-8.42933 -0.31934,-3.16267 0.8776,-6.57467 3.4744,-8.40667 1.7656,-1.24666 3.9656,-1.67066 5.94586,-2.53733 1.8812,-0.82133 3.58027,-2.05467 4.94214,-3.592 1.04586,-1.18 1.91226,-2.588 2.10426,-4.15333 0.19334,-1.564 -0.41,-3.292 -1.7532,-4.116 2.15054,1.57733 4.33854,3.19466 5.87854,5.36933 3.21466,4.544 2.832,11.29067 -0.87467,15.44133 -1.65333,1.85067 -3.9044,3.272 -4.882,5.552 -1.1192,2.60933 -0.238,5.68933 1.31413,8.06533 1.55187,2.37734 3.71187,4.28667 5.4892,6.5 0.66534,0.82934 3.32267,4.164 2.748,5.33067 -0.452,0.924 -1.65466,-0.50267 -2.264,-1.008 -3.41333,-2.83467 -7.10973,-5.328 -10.70866,-7.92267" />
      <path
         id="path1268"
         style="fill:#d851a7;fill-opacity:1;fill-rule:nonzero;stroke:none;stroke-width:0.133333"
         d="m 132.98853,429.15841 c -0.674,-4.10107 -4.65413,-6.72507 -8.37493,-8.5784 -6.6896,-3.332 -13.8776,-5.928 -19.62974,-10.7 -0.39946,2.56 0.22027,5.23066 1.4172,7.52666 1.09534,2.10267 2.79947,4.05467 4.70574,5.46267 1.22866,0.90787 2.652,1.5068 3.98586,2.25053 3.07867,1.7172 5.70267,4.24174 7.53707,7.25214 0.8796,1.44266 1.59053,3.03586 1.7088,4.72293 0.1188,1.688 -0.43067,3.4812 -1.72027,4.57547 0.25574,-0.2172 3.6968,-0.21307 6.7432,-3.84374 2.0916,-2.49213 4.1932,-5.21973 3.62707,-8.66826" />
      <path
         id="path1270"
         style="fill:#c0d2e7;fill-opacity:1;fill-rule:nonzero;stroke:none;stroke-width:0.133333"
         d="m 95.649998,441.04801 c -20.244267,-5.43747 -42.822933,3.43333 -62.305199,-4.3 -0.478133,-0.188 -0.983866,-0.39214 -1.490666,-0.30414 -0.407734,0.0708 -0.757734,0.32294 -1.092134,0.56667 -6.8532,5.01093 -13.705733,10.02293 -20.558879,15.03333 4.39848,-0.5156 18.821413,0.0989 22.773946,0.2812 7.692266,0.35627 15.371866,0.97867 23.021866,1.8604 15.405733,1.77867 30.688532,4.6172 45.705198,8.49334 8.4276,2.1744 16.65373,5.364 25.05893,7.4452 -4.6912,-14.03334 -16.89746,-25.2588 -31.113062,-29.076" />
      <path
         id="path1272"
         style="fill:#c0d2e7;fill-opacity:1;fill-rule:nonzero;stroke:none;stroke-width:0.133333"
         d="m 102.24173,441.80014 c -11.336532,-4.70413 -23.830799,-5.77867 -36.102132,-6.03747 -8.346933,-0.17613 -17.408933,-0.2292 -23.991199,-5.3652 3.093733,-0.3572 6.127066,-1.23586 8.932266,-2.5896 1.1652,1.93854 3.433867,2.89334 5.602134,3.53494 10.660933,3.14373 22.144266,1.6068 33.086932,3.55733 14.227199,2.53693 27.239599,11.25573 34.995869,23.44893 1.436,2.25627 2.82706,5.13494 3.44893,8.32974 -2.0932,-4.94174 -6.83693,-11.06934 -9.20253,-13.55734 -4.6792,-4.924 -10.512,-8.72293 -16.77027,-11.32133" />
      <path
         id="path1274"
         style="fill:#c0d2e7;fill-opacity:1;fill-rule:nonzero;stroke:none;stroke-width:0.133333"
         d="m 93.926531,431.39747 c -5.430133,-1.16293 -11.364533,-1.276 -16.883866,-1.8896 -2.689067,-0.3 -5.39,-0.66666 -7.954133,-1.53066 -2.563467,-0.86254 -5.004134,-2.25734 -6.742667,-4.3308 2.221867,0.2428 4.5036,-0.0943 6.561467,-0.96774 0.231733,0.98547 0.959333,1.7772 1.742666,2.41627 2.1584,1.76347 4.883867,2.7052 7.626,3.20773 2.742267,0.50107 5.5396,0.59587 8.314667,0.85574 7.244799,0.6828 14.592135,2.62706 20.684395,6.72813 1.69894,1.1428 5.302,4.15627 6.69467,5.66413 -6.05573,-5.212 -13.4208,-8.736 -20.043199,-10.1532" />
      <path
         id="path1276"
         style="fill:#501e5a;fill-opacity:1;fill-rule:nonzero;stroke:none;stroke-width:0.133333"
         d="m 128.21453,474.96934 c 0,0 -48.342132,-18.62387 -121.3864102,-18.83067 L 0,461.10534 c 0,0 61.092665,-5.7948 128.21453,13.864" />
      <path
         id="path1278"
         style="fill:#dfebf8;fill-opacity:1;fill-rule:nonzero;stroke:none;stroke-width:0.133333"
         d="m 160.78,441.16787 c 20.24266,-5.43706 42.82133,3.43334 62.30399,-4.3 0.47867,-0.18906 0.984,-0.39333 1.49067,-0.30373 0.408,0.0704 0.75867,0.3224 1.092,0.5652 6.85333,5.01187 13.70667,10.0228 20.56,15.0348 -4.4,-0.51773 -18.82267,0.0975 -22.77467,0.28133 -7.69333,0.35574 -15.372,0.97707 -23.02266,1.85987 -15.40533,1.77707 -30.688,4.61613 -45.704,8.49213 -8.428,2.17614 -16.65467,5.3652 -25.05973,7.4464 4.69173,-14.0344 16.89706,-25.2584 31.1144,-29.076" />
      <path
         id="path1280"
         style="fill:#dfebf8;fill-opacity:1;fill-rule:nonzero;stroke:none;stroke-width:0.133333"
         d="m 154.188,441.91987 c 11.336,-4.70413 23.83066,-5.7796 36.10133,-6.03746 8.34667,-0.17547 17.40933,-0.23027 23.99066,-5.36774 -3.09333,-0.35466 -6.12666,-1.23333 -8.932,-2.5864 -1.16533,1.93694 -3.43333,2.8932 -5.60266,3.53174 -10.66,3.14693 -22.144,1.60786 -33.08667,3.5588 -14.22666,2.53853 -27.23866,11.25733 -34.9956,23.44906 -1.43493,2.2572 -2.82706,5.13587 -3.44853,8.32814 2.09387,-4.94014 6.83613,-11.06774 9.2028,-13.55734 4.67867,-4.92133 10.51067,-8.72133 16.77067,-11.3188" />
      <path
         id="path1282"
         style="fill:#dfebf8;fill-opacity:1;fill-rule:nonzero;stroke:none;stroke-width:0.133333"
         d="m 162.50266,431.51574 c 5.42934,-1.16093 11.36534,-1.27547 16.884,-1.89067 2.688,-0.2968 5.38934,-0.66506 7.95334,-1.5276 2.564,-0.86293 5.004,-2.2572 6.74266,-4.33066 -2.22133,0.24266 -4.504,-0.0948 -6.56133,-0.96814 -0.232,0.98534 -0.95867,1.77587 -1.74267,2.416 -2.15866,1.76414 -4.884,2.7052 -7.62533,3.2068 -2.74267,0.50254 -5.54,0.59427 -8.31467,0.85734 -7.24533,0.6812 -14.59333,2.62493 -20.68533,6.72653 -1.69867,1.14427 -5.30133,4.15733 -6.69333,5.66507 6.05466,-5.21307 13.42,-8.73694 20.04266,-10.15467" />
      <path
         id="path1284"
         style="fill:#501e5a;fill-opacity:1;fill-rule:nonzero;stroke:none;stroke-width:0.133333"
         d="m 128.21453,475.08814 c 0,0 48.34147,-18.62293 121.38546,-18.82973 l 6.82934,4.96666 c 0,0 -61.092,-5.79426 -128.2148,13.86307" />
      <path
         id="path1286"
         style="fill:#f466ba;fill-opacity:1;fill-rule:nonzero;stroke:none;stroke-width:0.133333"
         d="m 34.283866,464.11987 c 0,0 52.501065,1.18387 93.930664,13.9204 v 5.92387 c 0,0 -22.25147,-11.552 -93.930664,-19.84427" />
      <path
         id="path1288"
         style="fill:#f466ba;fill-opacity:1;fill-rule:nonzero;stroke:none;stroke-width:0.133333"
         d="m 222.14533,464.11987 c 0,0 -52.5,1.18387 -93.9308,13.9204 v 5.92387 c 0,0 22.25213,-11.552 93.9308,-19.84427" />
    </g>
  </g>
</svg>
